<?xml version="1.0" encoding="utf-8"?>
<!-- Generator: Adobe Illustrator 21.0.0, SVG Export Plug-In . SVG Version: 6.00 Build 0)  -->
<svg version="1.1" id="Layer_1" xmlns="http://www.w3.org/2000/svg" xmlns:xlink="http://www.w3.org/1999/xlink" x="0px" y="0px"
	 viewBox="0 0 35 35" style="enable-background:new 0 0 35 35;" xml:space="preserve">
<g>
	<path d="M21.6,8.4h-8.1c-2.8,0-5,2.3-5,5v8.1c0,2.8,2.3,5,5,5h8.1c2.8,0,5-2.3,5-5v-8.2C26.6,10.7,24.3,8.4,21.6,8.4z
		 M25,21.6c0,1.9-1.5,3.4-3.4,3.4h-8.1c-1.9,0-3.4-1.5-3.4-3.4v-8.2c0-1.9,1.5-3.4,3.4-3.4h8.1c1.9,0,3.4,1.5,3.4,3.4V21.6L25,21.6z
		"/>
	<path d="M17.5,12.8c-2.6,0-4.7,2.1-4.7,4.7s2.1,4.7,4.7,4.7s4.7-2.1,4.7-4.7C22.2,14.9,20.1,12.8,17.5,12.8z
		 M17.5,20.6c-1.7,0-3.1-1.4-3.1-3.1c0-1.7,1.4-3.1,3.1-3.1s3.1,1.4,3.1,3.1C20.6,19.2,19.2,20.6,17.5,20.6z"/>
	<path d="M22.4,11.4c-0.3,0-0.6,0.2-0.8,0.4c-0.2,0.2-0.4,0.5-0.4,0.8c0,0.3,0.2,0.6,0.4,0.8c0.2,0.2,0.5,0.4,0.8,0.4
		c0.3,0,0.6-0.2,0.8-0.4c0.2-0.2,0.4-0.5,0.4-0.8c0-0.3-0.2-0.6-0.4-0.8C23,11.6,22.7,11.4,22.4,11.4z"/>
</g>
</svg>
