<!-- Generator: Adobe Illustrator 21.0.0, SVG Export Plug-In  -->
<svg version="1.1"
	 xmlns="http://www.w3.org/2000/svg" xmlns:xlink="http://www.w3.org/1999/xlink" xmlns:a="http://ns.adobe.com/AdobeSVGViewerExtensions/3.0/"
	 x="0px" y="0px" width="217.487px" height="217.487px" viewBox="0 0 217.487 217.487"
	 style="overflow:scroll;enable-background:new 0 0 217.487 217.487;" xml:space="preserve">
<style type="text/css">
	.st0{fill:#432559;}
	.st1{fill:#FFFFFF;stroke:#FFFFFF;stroke-miterlimit:10;}
</style>
<defs>
</defs>
<circle class="st0" cx="108.744" cy="108.744" r="108.744"/>
<g>
	<rect x="26.522" y="92.025" class="st1" width="20.271" height="3.176"/>
	<polygon class="st1" points="47.316,96.26 50.909,96.26 57.278,122.57 53.616,122.57 	"/>
	<rect x="57.803" y="126.007" class="st1" width="20.271" height="3.159"/>
	<path class="st1" d="M89.427,129.616h-3.35c-1.77-2.673-3.118-5.449-4.044-8.33c-0.926-2.881-1.389-5.669-1.389-8.365
		c0-3.344,0.573-6.508,1.718-9.493c0.995-2.592,2.256-4.981,3.783-7.168h3.332c-1.585,3.506-2.676,6.488-3.272,8.946
		c-0.596,2.459-0.894,5.065-0.894,7.819c0,1.898,0.177,3.841,0.529,5.831c0.353,1.99,0.836,3.882,1.449,5.675
		C87.698,125.712,88.409,127.406,89.427,129.616z"/>
	<path class="st1" d="M96.632,97.435c1.351,2.63,2.914,6.895,3.412,9.454l-2.381,0.782c-0.498-2.488-1.99-6.717-3.341-9.49
		L96.632,97.435z"/>
	<path class="st1" d="M123.253,97.862c-0.107,0.32-0.462,0.462-0.924,0.462c-3.732,12.546-9.561,20.223-20.685,25.092
		c-0.356-0.498-1.173-1.457-1.706-1.955c10.876-4.585,16.455-11.729,19.974-24.666L123.253,97.862z"/>
	<path class="st1" d="M107.899,95.409c0.818,2.95,1.706,7.357,1.884,10.094l-2.523,0.391c-0.213-2.808-0.995-7.073-1.848-10.058
		L107.899,95.409z"/>
	<path class="st1" d="M128.077,129.616c0.96-2.06,1.637-3.639,2.03-4.738c0.393-1.099,0.758-2.366,1.093-3.801
		c0.336-1.435,0.584-2.797,0.746-4.087c0.162-1.29,0.243-2.612,0.243-3.966c0-2.754-0.295-5.36-0.885-7.819
		c-0.59-2.458-1.678-5.441-3.263-8.946h3.315c1.747,2.488,3.104,5.126,4.07,7.914c0.966,2.788,1.449,5.617,1.449,8.487
		c0,2.418-0.382,5.01-1.145,7.775c-0.868,3.101-2.297,6.161-4.287,9.181H128.077z"/>
	<rect x="139.275" y="126.007" class="st1" width="20.271" height="3.159"/>
	<polygon class="st1" points="160.208,122.57 166.508,96.26 170.17,96.26 163.801,122.57 	"/>
	<rect x="170.694" y="92.025" class="st1" width="20.271" height="3.176"/>
</g>
</svg>