<!-- Generator: Adobe Illustrator 21.0.0, SVG Export Plug-In  -->
<svg version="1.1"
	 xmlns="http://www.w3.org/2000/svg" xmlns:xlink="http://www.w3.org/1999/xlink" xmlns:a="http://ns.adobe.com/AdobeSVGViewerExtensions/3.0/"
	 x="0px" y="0px" width="41.527px" height="7.987px" viewBox="0 0 41.527 7.987"
	 style="overflow:scroll;enable-background:new 0 0 41.527 7.987;" xml:space="preserve">
<style type="text/css">
	.st0{fill:#FFFFFF;}
</style>
<defs>
</defs>
<g>
	<path class="st0" d="M4.845,7.796l-0.06-0.947l0.936-0.048v-5.77H3.502C3.489,5.817,2.374,7.964,0.755,7.964
		C0.228,7.964,0,7.796,0,7.796l0.06-1.115c0,0,0.144,0.072,0.408,0.072c1.055,0,1.715-1.548,1.799-5.757L1.175,0.936L1.235,0h6.74
		v0.947L7.088,0.996v5.805l0.936,0.048L7.963,7.796H4.845z"/>
	<path class="st0" d="M10.188,5.121c0.107,1.308,0.791,1.896,1.895,1.896c1.079,0,1.667-0.731,1.667-0.731l0.6,0.659
		c0,0-0.684,1.043-2.326,1.043c-1.932,0-3.143-1.103-3.143-3.202c0-2.063,1.211-3.178,2.95-3.178c1.68,0,2.603,0.899,2.603,2.626
		c0,0.517-0.18,0.888-0.18,0.888H10.188z M10.199,4.246h3.022c0,0,0.023-0.156,0.023-0.264c0-0.924-0.443-1.439-1.403-1.439
		C10.835,2.543,10.307,3.154,10.199,4.246z"/>
	<path class="st0" d="M15.228,7.796l-0.06-0.947l0.695-0.048V2.795l-0.672-0.048l0.061-0.948h1.919v2.447h2.794V2.614l-0.552-0.048
		V1.799h2.471v0.948l-0.611,0.048V6.86l0.695,0.048l-0.06,0.888h-1.943V5.182h-2.794v1.811l0.575,0.036l-0.06,0.768H15.228z"/>
	<path class="st0" d="M24.311,7.796l-0.06-0.947l0.695-0.048V2.795h-1.331l-0.072,1.188H22.62l0.035-2.184v-0.06l0.852,0.06h4.234
		l0.863-0.06L28.58,3.982h-0.923l-0.048-1.188h-1.355V6.86l0.695,0.048l-0.06,0.888H24.311z"/>
	<path class="st0" d="M29.591,3.706l0.048-1.979h0.804l0.12,0.396c0.324-0.228,0.876-0.516,1.571-0.516
		c1.331,0,2.146,0.672,2.146,2.255V6.86l0.695,0.048l-0.06,0.888h-1.703l-0.18-0.684c-0.072,0.144-0.552,0.875-1.859,0.875
		c-1.354,0-2.135-0.671-2.135-1.763c0-1.763,2.411-1.895,3.946-2.039v-0.3c0-0.971-0.336-1.343-1.199-1.343
		c-0.576,0-0.96,0.239-1.151,0.407l-0.061,0.756H29.591z M32.985,6.309V5.001c-1.392,0.097-2.603,0.181-2.603,1.104
		c0,0.672,0.396,0.983,1.199,0.983C32.59,7.088,32.949,6.381,32.985,6.309z"/>
	<path class="st0" d="M39.537,2.795l-0.672-0.048l0.06-0.948h1.919V6.86l0.684,0.048l-0.06,0.888h-2.65l-0.061-0.888l0.78-0.036
		V5.337c0,0-0.601,0.313-1.835,0.313c-1.152,0-1.907-0.6-1.907-1.787V2.795l-0.672-0.048l0.06-0.948h1.955v1.907
		c0,0.624,0.324,1.104,1.031,1.104c0.828,0,1.368-0.264,1.368-0.264V2.795z"/>
</g>
</svg>