<?xml version="1.0" encoding="utf-8"?>
<!-- Generator: Adobe Illustrator 21.0.0, SVG Export Plug-In . SVG Version: 6.00 Build 0)  -->
<svg version="1.1" id="Layer_1" xmlns="http://www.w3.org/2000/svg" xmlns:xlink="http://www.w3.org/1999/xlink" x="0px" y="0px"
	 viewBox="0 0 35 35" style="enable-background:new 0 0 35 35;" xml:space="preserve">
<path id="path9" d="M25.8,9.2l-19,7.2c-1.3,0.5-1.3,1.3-0.2,1.6l4.7,1.5L13,25c0.2,0.6,0.2,0.8,0.8,0.8
	c0.5,0,0.6-0.2,1-0.5c0.2-0.2,1.1-1.1,2.4-2.3l4.8,3.6c1,0.5,1.6,0.2,1.7-0.8L27,10.7C27.5,9.4,26.6,9,25.8,9.2z M12.1,19.3
	l10.6-6.8c0.5-0.4,1-0.2,0.6,0.2l-9.1,8.4l-0.4,3.7L12.1,19.3z"/>
</svg>
