<?xml version="1.0" encoding="utf-8"?>
<!-- Generator: Adobe Illustrator 21.0.0, SVG Export Plug-In . SVG Version: 6.00 Build 0)  -->
<svg version="1.1" id="Layer_1" xmlns="http://www.w3.org/2000/svg" xmlns:xlink="http://www.w3.org/1999/xlink" x="0px" y="0px"
	 viewBox="0 0 35 35" style="enable-background:new 0 0 35 35;" xml:space="preserve">
<path d="M24.4,18.2c0,0,2.9-4.2,3.2-5.6c0.1-0.5-0.1-0.8-0.6-0.8c0,0-1.7,0-2.6,0c-0.6,0-0.8,0.3-0.9,0.6
	c0,0-1.4,2.9-3.1,4.8c-0.5,0.6-0.9,0.8-1.1,0.8c-0.3,0-0.3-0.2-0.3-0.8v-4.7c0-0.7-0.1-0.9-0.6-0.9h-4.1c-0.3,0-0.5,0.2-0.5,0.4
	c0,0.6,0.9,0.8,0.9,2.5v3.5c0,0.7,0,0.9-0.3,0.9c-0.9,0-3-3-4.1-6.5c-0.3-0.7-0.5-0.9-1.1-0.9H6.6c-0.3,0-0.7,0.3-0.7,0.6
	c0,0.7,0.8,3.8,3.9,8c2.1,2.8,4.9,4.4,7.4,4.4c1.5,0,1.9-0.3,1.9-0.9v-2.2c0-0.5,0.3-0.8,0.5-0.8c0.3,0,0.9,0.1,2.4,1.5
	c1.7,1.6,1.8,2.3,2.7,2.3h2.9c0.3,0,0.6-0.2,0.6-0.6c0-0.7-0.9-1.8-2.1-3.2c-0.5-0.7-1.4-1.5-1.6-1.8C23.9,18.8,24.1,18.6,24.4,18.2
	z"/>
</svg>
