<!-- Generator: Adobe Illustrator 19.1.0, SVG Export Plug-In  -->
<svg version="1.1"
	 xmlns="http://www.w3.org/2000/svg" xmlns:xlink="http://www.w3.org/1999/xlink"
	 x="0px" y="0px" width="35px" height="35px" viewBox="0 0 35 35" xml:space="preserve">

<path d="M26.1,17.5c0,0,3.4-4.9,3.8-6.5c0.1-0.6-0.1-0.9-0.7-0.9c0,0-2,0-3,0c-0.7,0-0.9,0.3-1.1,0.7
	c0,0-1.6,3.4-3.6,5.6c-0.6,0.7-1,0.9-1.3,0.9c-0.3,0-0.4-0.2-0.4-0.9v-5.5c0-0.8-0.1-1-0.7-1h-4.8c-0.4,0-0.6,0.2-0.6,0.5
	c0,0.7,1.1,0.9,1.1,2.9v4.1c0,0.8,0,1.1-0.4,1.1c-1,0-3.5-3.5-4.8-7.6c-0.3-0.8-0.6-1-1.3-1h-3c-0.4,0-0.8,0.3-0.8,0.7
	c0,0.8,0.9,4.5,4.6,9.4c2.5,3.3,5.7,5.1,8.6,5.1c1.8,0,2.2-0.3,2.2-1v-2.6c0-0.6,0.3-0.9,0.6-0.9c0.4,0,1.1,0.1,2.8,1.8
	c2,1.9,2.1,2.7,3.2,2.7h3.4c0.3,0,0.7-0.2,0.7-0.7c0-0.8-1-2.1-2.5-3.7c-0.6-0.8-1.6-1.7-1.9-2.1C25.6,18.2,25.8,18,26.1,17.5z"/>
</svg>