<?xml version="1.0" encoding="utf-8"?>
<!-- Generator: Adobe Illustrator 21.0.0, SVG Export Plug-In . SVG Version: 6.00 Build 0)  -->
<svg version="1.1" id="Layer_1" xmlns="http://www.w3.org/2000/svg" xmlns:xlink="http://www.w3.org/1999/xlink" x="0px" y="0px"
	 viewBox="0 0 35 35" xml:space="preserve">
<g>
	<path d="M14.1,19.2h4c-0.7,2-2.6,3.4-4.8,3.4c-2.7,0-4.9-2.2-5-4.9c-0.1-2.9,2.2-5.3,5.1-5.3c1.3,0,2.5,0.5,3.4,1.3
		c0.2,0.2,0.5,0.2,0.7,0l1.5-1.4c0.2-0.2,0.2-0.6,0-0.8c-1.4-1.3-3.3-2.2-5.4-2.2C9,9.3,5.2,12.9,5.2,17.4c0,4.5,3.6,8.2,8.1,8.2
		c4.3,0,7.9-3.4,8.1-7.7c0-0.1,0-1.9,0-1.9h-7.4c-0.3,0-0.5,0.2-0.5,0.5v2C13.6,18.9,13.8,19.2,14.1,19.2z"/>
	<path d="M28.2,16.3v-2c0-0.3-0.2-0.5-0.5-0.5h-1.6c-0.3,0-0.5,0.2-0.5,0.5v2h-2c-0.3,0-0.5,0.2-0.5,0.5v1.6
		c0,0.3,0.2,0.5,0.5,0.5h2v2c0,0.3,0.2,0.5,0.5,0.5h1.6c0.3,0,0.5-0.2,0.5-0.5v-2h2c0.3,0,0.5-0.2,0.5-0.5v-1.6
		c0-0.3-0.2-0.5-0.5-0.5H28.2L28.2,16.3z"/>
</g>
</svg>
