<!-- Generator: Adobe Illustrator 19.1.0, SVG Export Plug-In  -->
<svg version="1.1"
	 xmlns="http://www.w3.org/2000/svg" xmlns:xlink="http://www.w3.org/1999/xlink"
	 x="0px" y="0px" width="35px" height="35px" viewBox="0 0 35 35" xml:space="preserve">
<defs>
</defs>
<g>
	<path d="M22.9,5.4H12.1c-3.7,0-6.7,3-6.7,6.7v10.8c0,3.7,3,6.7,6.7,6.7h10.8c3.7,0,6.7-3,6.7-6.7V12
		C29.6,8.4,26.6,5.4,22.9,5.4z M27.5,22.9c0,2.5-2,4.5-4.5,4.5H12.2c-2.5,0-4.5-2-4.5-4.5V12c0-2.5,2-4.5,4.5-4.5H23
		c2.5,0,4.5,2,4.5,4.5V22.9L27.5,22.9z"/>
	<path d="M17.5,11.2c-3.4,0-6.2,2.8-6.2,6.2s2.8,6.2,6.2,6.2s6.2-2.8,6.2-6.2C23.8,14,21,11.2,17.5,11.2z M17.5,21.6
		c-2.3,0-4.1-1.8-4.1-4.1s1.8-4.1,4.1-4.1s4.1,1.8,4.1,4.1C21.6,19.7,19.8,21.6,17.5,21.6z"/>
	<path d="M24,9.4c-0.4,0-0.8,0.2-1.1,0.5c-0.3,0.3-0.5,0.7-0.5,1.1c0,0.4,0.2,0.8,0.5,1.1s0.7,0.5,1.1,0.5
		s0.8-0.2,1.1-0.5c0.3-0.3,0.5-0.7,0.5-1.1c0-0.4-0.2-0.8-0.5-1.1C24.8,9.6,24.4,9.4,24,9.4z"/>
</g>

</svg>