<?xml version="1.0" encoding="utf-8"?>
<!-- Generator: Adobe Illustrator 21.0.0, SVG Export Plug-In . SVG Version: 6.00 Build 0)  -->
<svg version="1.1" id="Layer_1" xmlns="http://www.w3.org/2000/svg" xmlns:xlink="http://www.w3.org/1999/xlink" x="0px" y="0px"
	 viewBox="0 0 35 35" xml:space="preserve">
<g>
	<path d="M28.1,11.9c-0.7,0.4-1.6,0.6-2.5,0.6c0.9-0.5,1.6-1.4,1.9-2.4c-0.7,0.5-1.6,0.9-2.7,1.1
		c-0.7-0.7-1.9-1.4-3.1-1.4c-2.4,0-4.4,2-4.4,4.4c0,0.4,0,0.6,0.1,0.9c-3.8-0.1-6.8-1.9-8.9-4.5C8.2,11.2,8,12.1,8,12.8
		c0,1.6,0.7,2.7,1.9,3.5c-0.7,0-1.4-0.1-2-0.5l0,0c0,2.1,1.6,3.8,3.4,4.1c-0.4,0.1-0.7,0.1-1.1,0.1c-0.4,0-0.6,0-0.7-0.1
		c0.6,1.6,2.1,3.1,4.1,3.1c-1.6,1.1-3.4,1.9-5.5,1.9c-0.4,0-0.6,0-1.1,0c1.9,1.3,4.1,2,6.6,2c7.9,0,12.4-6.6,12.4-12.4
		c0-0.1,0-0.4,0-0.6C26.8,13.6,27.6,12.6,28.1,11.9z"/>
</g>
</svg>
