<svg
   xmlns="http://www.w3.org/2000/svg"
   xml:space="preserve"
   viewBox="0 0 44 44"
   y="0px"
   x="0px"
   version="1.1">
    <path d="m 17.537219,30.958012 c -1.192061,1.192062 -3.04638,1.192062 -4.238442,0 -1.192061,-1.192061 -1.192061,-3.178831 0,-4.370893 l 5.298053,-5.430504 c 1.192062,-1.192062 3.04638,-1.192062 4.238442,0 l 0.264903,0.264903 2.251672,-2.384124 -0.397354,-0.264903 C 23.762431,17.58043 22.173015,16.918173 20.5836,16.918173 l 0,0 c -1.589416,0 -3.178832,0.662257 -4.370894,1.854318 l -5.430504,5.430504 -0.132451,0.132452 0,0 c -1.0596105,1.192062 -1.7218671,2.781477 -1.7218671,4.370893 0,1.721867 0.6622566,3.311283 1.8543181,4.503345 1.192062,1.192062 2.781478,1.721867 4.370894,1.854318 1.589416,0 3.178831,-0.662256 4.370893,-1.854318 l 3.443734,-3.443734 -2.251672,-2.251673 -3.178832,3.443734 z" />
    <path d="M 33.034023,10.957864 C 31.841961,9.765802 30.252546,9.2359968 28.66313,9.2359968 l 0,0 c -1.589416,0 -3.178832,0.6622566 -4.370893,1.8543182 l -3.311283,3.443734 2.251672,2.251673 3.311283,-3.443734 c 1.192062,-1.192062 3.04638,-1.192062 4.238442,0 1.192062,1.192061 1.192062,3.178831 0,4.370893 l -5.430504,5.430504 c -1.192062,1.192062 -3.04638,1.192062 -4.238442,0 l -0.397354,-0.264903 -2.251672,2.384124 0.397354,0.264903 c 1.192061,1.192061 2.781477,1.854318 4.370893,1.854318 1.589416,0 3.178832,-0.662257 4.370893,-1.854318 l 5.430504,-5.562956 c 2.384124,-2.516575 2.384124,-6.490114 0,-9.006689 z" />
</svg>