<?xml version="1.0" encoding="utf-8"?>
<!-- Generator: Adobe Illustrator 21.0.0, SVG Export Plug-In . SVG Version: 6.00 Build 0)  -->
<svg version="1.1" id="Layer_1" xmlns="http://www.w3.org/2000/svg" xmlns:xlink="http://www.w3.org/1999/xlink" x="0px" y="0px"
	 viewBox="0 0 35 35" xml:space="preserve">
<g>
	<path d="M24.4,22.7c-0.6-0.5-1.2-0.9-1.9-1.4c-1.3-0.9-2.4-0.9-3.3,0.5c-0.5,0.8-1.3,0.8-2,0.5c-2.1-1-3.7-2.4-4.7-4.6
		c-0.4-1-0.4-1.8,0.6-2.5c0.5-0.4,1.1-0.8,1-1.6c-0.1-1-2.5-4.4-3.5-4.8c-0.4-0.1-0.8-0.1-1.2,0C7.1,9.7,6.1,11.6,7,13.8
		c2.7,6.6,7.4,11.2,14,14c0.4,0.2,0.8,0.2,1,0.3c1.5,0,3.2-1.4,3.7-2.8C26.2,23.9,25.2,23.4,24.4,22.7L24.4,22.7z M17,9.6
		c4.8,0.7,7,3,7.6,7.8c0.1,0.4-0.1,1.1,0.5,1.1c0.7,0,0.5-0.6,0.5-1.1c0.1-4.5-3.9-8.7-8.5-8.9c-0.3,0-1.1-0.2-1.1,0.5
		C16,9.6,16.6,9.5,17,9.6L17,9.6z"/>
	<path d="M18,10.9c-0.5-0.1-1.1-0.3-1.2,0.4c-0.1,0.7,0.6,0.6,1,0.7c2.9,0.7,4,1.7,4.5,4.7c0.1,0.4-0.1,1.1,0.7,1
		c0.5-0.1,0.3-0.7,0.4-1C23.3,13.8,20.9,11.3,18,10.9L18,10.9z"/>
	<path d="M18.2,13.2c-0.3,0-0.6,0-0.7,0.4c-0.2,0.5,0.2,0.6,0.5,0.7c1.2,0.2,1.8,0.9,2,2.1c0,0.3,0.2,0.6,0.6,0.6
		c0.4-0.1,0.5-0.4,0.5-0.8C21.1,14.8,19.5,13.2,18.2,13.2L18.2,13.2z"/>
</g>
</svg>
