<?xml version="1.0" encoding="utf-8"?>
<!-- Generator: Adobe Illustrator 21.0.0, SVG Export Plug-In . SVG Version: 6.00 Build 0)  -->
<svg version="1.1" id="Layer_1" xmlns="http://www.w3.org/2000/svg" xmlns:xlink="http://www.w3.org/1999/xlink" x="0px" y="0px"
	 viewBox="0 0 35 35" xml:space="preserve">
<g>
	<path d="M30.8,17.2c0,7.2-5.8,12.9-13.1,12.9c-2.3,0-4.4-0.6-6.3-1.6l-7.2,2.3l2.4-6.9
		c-1.2-2-1.9-4.2-1.9-6.7c0-7.2,5.8-12.9,13.1-12.9C25,4.2,30.8,10,30.8,17.2z M17.7,6.3c-6.1,0-11,4.9-11,10.9
		c0,2.4,0.8,4.6,2.1,6.4l-1.4,4l4.2-1.3c1.7,1.1,3.8,1.8,6,1.8c6,0,11-4.9,11-10.9S23.8,6.3,17.7,6.3z M24.3,20.1
		c-0.1-0.1-0.3-0.2-0.6-0.4c-0.3-0.2-1.9-0.9-2.2-1c-0.3-0.1-0.5-0.2-0.7,0.2c-0.2,0.3-0.8,1-1,1.2c-0.2,0.2-0.4,0.2-0.7,0.1
		c-0.3-0.2-1.4-0.5-2.6-1.6c-1-0.8-1.6-1.9-1.8-2.2c-0.2-0.3,0-0.5,0.1-0.6c0.1-0.1,0.3-0.4,0.5-0.6c0.2-0.2,0.2-0.3,0.3-0.5
		c0.1-0.2,0.1-0.4,0-0.6c-0.1-0.2-0.7-1.7-1-2.4c-0.3-0.6-0.5-0.5-0.7-0.5c-0.2,0-0.4,0-0.6,0c-0.2,0-0.6,0.1-0.9,0.4
		c-0.3,0.3-1.1,1.1-1.1,2.6c0,1.6,1.1,3.1,1.3,3.3c0.2,0.2,2.2,3.5,5.5,4.8c3.3,1.3,3.3,0.8,3.8,0.8c0.6-0.1,1.9-0.8,2.2-1.5
		C24.4,20.9,24.4,20.3,24.3,20.1z"/>
</g>
</svg>
