<?xml version="1.0" encoding="utf-8"?>
<!-- Generator: Adobe Illustrator 21.0.0, SVG Export Plug-In . SVG Version: 6.00 Build 0)  -->
<svg version="1.1" id="Слой_1" xmlns="http://www.w3.org/2000/svg" xmlns:xlink="http://www.w3.org/1999/xlink" x="0px" y="0px"
	 viewBox="0 0 20 8.2" style="enable-background:new 0 0 20 8.2;" xml:space="preserve">
<style type="text/css">
	.st0{fill:#432559;}
</style>
<g>
	<path class="st0" d="M5.4,1.6h-1L4.2,3v1.9H1.8c0.6-1.1,1.3-2.7,1.8-4.3L2.5,0.4C2,2.1,1.2,4,0.6,5l0.1,0.7h3.6v1.1l-0.8,0l0.1,0.8
		H6l0.1-0.8l-0.6,0V5.8l0.9-0.1V4.9H5.4V1.6z"/>
	<path class="st0" d="M9.9,0.4c-2.1,0-3,1.4-3,3.6c0,2.3,0.9,3.9,3,3.9c2.1,0,3-1.6,3-3.9C12.9,1.7,12,0.4,9.9,0.4z M9.9,7
		c-1.2,0-1.7-1-1.7-3s0.5-2.8,1.7-2.8c1.2,0,1.7,0.8,1.7,2.8S11.1,7,9.9,7z"/>
	<path class="st0" d="M16.4,3.5L16.4,3.5l2-2.3V0.5h-3.5l-1-0.1l-0.1,1.8h0.8l0.1-0.8H17L14.8,4l0.5,0.6c0,0,0.3-0.3,0.7-0.3
		c0.9,0,1.4,0.4,1.4,1.1c0,0.8-0.6,1.4-1.9,1.4c-0.4,0-0.7,0-1-0.1l-0.1-0.9L13.7,6l0.1,1.5c0,0,0.5,0.3,1.8,0.3
		c1.8,0,3.1-0.9,3.1-2.4C18.7,4.2,17.7,3.5,16.4,3.5z"/>
</g>
</svg>
