<!-- Generator: Adobe Illustrator 21.0.0, SVG Export Plug-In  -->
<svg version="1.1"
	 xmlns="http://www.w3.org/2000/svg" xmlns:xlink="http://www.w3.org/1999/xlink" xmlns:a="http://ns.adobe.com/AdobeSVGViewerExtensions/3.0/"
	 x="0px" y="0px" width="20.025px" height="8.167px" viewBox="0 0 20.025 8.167"
	 style="overflow:scroll;enable-background:new 0 0 20.025 8.167;" xml:space="preserve">
<style type="text/css">
	.st0{fill:#432559;}
</style>
<defs>
</defs>
<g>
	<path class="st0" d="M3.19,7.976l-0.06-0.888L3.958,7.04V5.889H0.072L0,5.097c0.684-1.175,1.596-3.189,2.111-5.061L3.347,0.18
		C2.818,1.979,2.039,3.67,1.367,4.917h2.591V2.843l0.204-1.512h1.115v3.586h0.96v0.888l-0.96,0.084v1.224l0.695,0.036l-0.06,0.827
		H3.19z"/>
	<path class="st0" d="M6.804,3.97C6.804,1.476,7.8,0,10.055,0c2.242,0,3.25,1.476,3.25,3.97c0,2.482-1.008,4.197-3.25,4.197
		C7.8,8.167,6.804,6.452,6.804,3.97z M11.89,3.97c0-2.099-0.564-2.998-1.835-2.998c-1.284,0-1.848,0.899-1.848,2.998
		s0.563,3.227,1.848,3.227C11.325,7.196,11.89,6.068,11.89,3.97z"/>
	<path class="st0" d="M16.979,7.976l-0.06-0.888l0.827-0.048V5.889H13.86l-0.072-0.792c0.684-1.175,1.596-3.189,2.111-5.061
		l1.235,0.144c-0.528,1.799-1.308,3.49-1.979,4.737h2.591V2.843l0.204-1.512h1.115v3.586h0.96v0.888l-0.96,0.084v1.224l0.695,0.036
		l-0.06,0.827H16.979z"/>
</g>
</svg>