<!-- Generator: Adobe Illustrator 21.0.0, SVG Export Plug-In  -->
<svg version="1.1"
	 xmlns="http://www.w3.org/2000/svg" xmlns:xlink="http://www.w3.org/1999/xlink" xmlns:a="http://ns.adobe.com/AdobeSVGViewerExtensions/3.0/"
	 x="0px" y="0px" width="19.772px" height="8.395px" viewBox="0 0 19.772 8.395"
	 style="overflow:scroll;enable-background:new 0 0 19.772 8.395;" xml:space="preserve">
<style type="text/css">
	.st0{fill:#432559;}
</style>
<defs>
</defs>
<g>
	<path class="st0" d="M0,6.38l0.875-0.06l0.108,0.924c0.252,0.083,0.6,0.132,1.091,0.132c1.2,0,1.919-0.744,1.919-1.739
		c0-0.84-0.695-1.38-1.786-1.38c-0.685,0-1.056,0.229-1.116,0.313L0.432,4.485l0.432-4.078H4.09L4.174,0l0.887,0.06l-0.06,1.499
		l-1.104-0.06H1.822L1.606,3.406c0.216-0.036,0.456-0.072,0.72-0.072c1.823,0,3.011,0.804,3.011,2.303
		c0,1.739-1.463,2.758-3.286,2.758c-1.535,0-1.991-0.371-1.991-0.371L0,6.38z"/>
	<path class="st0" d="M5.987,4.197c0-2.494,0.996-3.97,3.251-3.97c2.242,0,3.25,1.476,3.25,3.97c0,2.482-1.008,4.197-3.25,4.197
		C6.983,8.395,5.987,6.68,5.987,4.197z M11.073,4.197c0-2.099-0.564-2.998-1.835-2.998c-1.284,0-1.848,0.899-1.848,2.998
		s0.563,3.227,1.848,3.227C10.509,7.424,11.073,6.296,11.073,4.197z"/>
	<path class="st0" d="M13.271,4.197c0-2.494,0.996-3.97,3.251-3.97c2.242,0,3.25,1.476,3.25,3.97c0,2.482-1.008,4.197-3.25,4.197
		C14.268,8.395,13.271,6.68,13.271,4.197z M18.357,4.197c0-2.099-0.564-2.998-1.835-2.998c-1.284,0-1.848,0.899-1.848,2.998
		s0.563,3.227,1.848,3.227C17.793,7.424,18.357,6.296,18.357,4.197z"/>
</g>
</svg>