<svg id="Слой_1" data-name="Слой 1" xmlns="http://www.w3.org/2000/svg" viewBox="0 0 44 44">
    <defs>
        <style>.cls-1{fill:none;}.cls-2{fill:#ccc;}</style>
    </defs>
    <title>desktop_editor_icon_gray</title>
    <rect class="cls-1" x="4.5" y="4.5" width="35" height="35"/>
    <path class="cls-2"
          d="M19.19,27.72a1.91,1.91,0,0,1-2.69,0,2,2,0,0,1,0-2.74l3.38-3.46a1.92,1.92,0,0,1,2.7,0l.2.2,1.41-1.48-.21-.2a4,4,0,0,0-2.78-1.15h0a3.83,3.83,0,0,0-2.76,1.15l-3.39,3.46-.08.1h0a4.17,4.17,0,0,0-1.05,2.75A3.87,3.87,0,0,0,15.1,29.2a4,4,0,0,0,2.77,1.13,3.85,3.85,0,0,0,2.76-1.15L22.77,27l-1.43-1.46Z"/>
    <path class="cls-2"
          d="M28.9,15.11A4,4,0,0,0,26.12,14h0a3.82,3.82,0,0,0-2.74,1.15l-2.09,2.14,1.43,1.46,2.09-2.14a1.91,1.91,0,0,1,2.69,0,2,2,0,0,1,0,2.74L24.1,22.78a1.91,1.91,0,0,1-2.7,0l-.2-.2-1.41,1.48.21.2a4,4,0,0,0,2.78,1.14,3.85,3.85,0,0,0,2.77-1.16l3.4-3.47A4.07,4.07,0,0,0,28.9,15.11Z"/>
</svg>