<svg id="Слой_1" data-name="Слой 1" xmlns="http://www.w3.org/2000/svg" viewBox="0 0 44 44">
    <defs>
        <style>.cls-1{fill:none;}.cls-2{fill:#ccc;}</style>
    </defs>
    <title>desktop_editor_icon_gray</title>
    <rect class="cls-1" x="4.5" y="4.5" width="35" height="35"/>
    <path class="cls-2"
          d="M19.84,29a14.52,14.52,0,0,1,.39-2.68L21.45,20c-.75.49-1.48,1-2.29,1.64-.13-.18-.29-.34-.44-.52,1.51-1.72,2.86-2.73,4-2.73a1.27,1.27,0,0,1,1.41,1.43A6.84,6.84,0,0,1,24,20.89c-.34,1.87-.83,4.34-1.53,7.75.73-.47,1.43-.91,2.19-1.43l.39.49c-1.53,1.66-3,2.63-3.8,2.63S19.84,30.07,19.84,29Zm3.88-16.67a1.55,1.55,0,0,1,1.56,1.56,1.78,1.78,0,0,1-1.77,1.74A1.55,1.55,0,0,1,22,14.13,1.81,1.81,0,0,1,23.72,12.33Z"/>
</svg>