<?xml version="1.0" encoding="utf-8"?>
<!-- Generator: Adobe Illustrator 21.0.0, SVG Export Plug-In . SVG Version: 6.00 Build 0)  -->
<svg version="1.1" id="Слой_1" xmlns="http://www.w3.org/2000/svg" xmlns:xlink="http://www.w3.org/1999/xlink" x="0px" y="0px"
	 viewBox="0 0 44 44" style="enable-background:new 0 0 44 44;" xml:space="preserve">
<path d="M20.3,33.7c-1.1-0.2-2.2-0.5-3.2-0.9l1.2-2.7c0.8,0.3,1.6,0.6,2.4,0.7L20.3,33.7z M23.7,33.7l-0.4-3
	c0.8-0.1,1.6-0.4,2.4-0.7l1.3,2.7C25.9,33.3,24.8,33.6,23.7,33.7z M14.3,31c-0.9-0.7-1.6-1.6-2.2-2.5l2.5-1.6c0.5,0.7,1,1.3,1.7,1.9
	L14.3,31z M29.8,31l-2-2.3c0.6-0.6,1.2-1.2,1.7-1.9l2.5,1.6C31.4,29.4,30.6,30.2,29.8,31z M10.6,25.4c-0.3-1.1-0.5-2.2-0.5-3.3l3,0
	c0,0.8,0.1,1.7,0.4,2.5L10.6,25.4z M33.4,25.3l-2.9-0.8c0.2-0.8,0.4-1.6,0.4-2.5l3,0v0C33.9,23.1,33.7,24.3,33.4,25.3z M13.5,19.5
	l-2.9-0.8c0.3-1.1,0.8-2.1,1.4-3.1l2.5,1.6C14.1,17.9,13.7,18.7,13.5,19.5z M30.5,19.5c-0.2-0.8-0.6-1.6-1.1-2.3l2.5-1.6
	c0.6,0.9,1.1,2,1.4,3.1L30.5,19.5z M16.2,15.3l-2-2.3c0.9-0.7,1.8-1.4,2.8-1.8l1.3,2.7C17.5,14.3,16.8,14.8,16.2,15.3z M27.8,15.3
	c-0.6-0.6-1.4-1-2.1-1.4l1.2-2.7c1,0.5,2,1.1,2.8,1.8L27.8,15.3z M20.7,13.2l-0.4-3c1.1-0.2,2.3-0.2,3.4,0l-0.4,3
	C22.4,13.1,21.5,13.1,20.7,13.2z"/>
</svg>
