<?xml version="1.0" encoding="utf-8"?>
<!-- Generator: Adobe Illustrator 21.0.0, SVG Export Plug-In . SVG Version: 6.00 Build 0)  -->
<svg version="1.1" id="Слой_1" xmlns="http://www.w3.org/2000/svg" xmlns:xlink="http://www.w3.org/1999/xlink" x="0px" y="0px"
	 viewBox="0 0 44 44" style="enable-background:new 0 0 44 44;" xml:space="preserve">
<g transform="translate(0,-952.36218)">
	<path d="M27.8,962.7c-0.2,0-0.4,0.1-0.5,0.3L12,978.1c-0.1,0.1-0.2,0.3-0.2,0.4l-1.5,6.4c-0.1,0.3,0,0.6,0.2,0.8
		s0.5,0.3,0.8,0.2l6.4-1.5c0.2,0,0.3-0.1,0.4-0.2l15.2-15.2c0.3-0.3,0.3-0.9,0-1.2l-5-5C28.3,962.7,28,962.6,27.8,962.7z
		 M27.9,964.8l3.7,3.7l-1.7,1.7l-3.7-3.7L27.9,964.8z M24.9,967.7l3.7,3.7l-10.8,10.8l-3.7-3.7L24.9,967.7z M13.2,980l3.1,3.1
		l-4,0.9L13.2,980z"/>
</g>
</svg>
