<?xml version="1.0" encoding="utf-8"?>
<!-- Generator: Adobe Illustrator 21.0.0, SVG Export Plug-In . SVG Version: 6.00 Build 0)  -->
<svg fill="#333333" version="1.1" id="Слой_1" xmlns="http://www.w3.org/2000/svg" xmlns:xlink="http://www.w3.org/1999/xlink" x="0px" y="0px"
	 viewBox="0 0 44 44" style="enable-background:new 0 0 44 44;" xml:space="preserve">
<path d="M23.3,15l5.8,5.8l-10.9,11C18,32,18,32.1,17.8,32.1l-6.4,1.5c-0.2,0.1-0.4,0-0.5,0l-0.1-0.1
	c-0.2-0.2-0.3-0.5-0.2-0.8l1.5-6.4c0-0.1,0.1-0.3,0.2-0.4L23.3,15z"/>
<path d="M33.3,16.7l-2,2.1L25.5,13l2.2-2.1c0.1-0.2,0.3-0.3,0.5-0.3c0.1,0,0.3,0,0.3,0l5,5
	C33.7,15.8,33.7,16.4,33.3,16.7z"/>
</svg>
