<svg version="1.1" id="Слой_1" xmlns="http://www.w3.org/2000/svg" xmlns:xlink="http://www.w3.org/1999/xlink" x="0px" y="0px"
	 viewBox="0 0 63 63" style="enable-background:new 0 0 63 63;" xml:space="preserve">
<path d="M32.7,25.5l6.1,6.1L27.3,43.2c-0.2,0.2-0.2,0.4-0.4,0.4l-6.8,1.6c-0.2,0.1-0.4,0-0.5,0L19.5,45
	c-0.2-0.2-0.4-0.5-0.2-0.8l1.6-6.8c0-0.1,0.1-0.4,0.2-0.4L32.7,25.5z"/>
<path d="M43.3,27.3l-2.1,2.2l-6.1-6.1l2.3-2.2c0.1-0.2,0.4-0.4,0.5-0.4s0.4,0,0.4,0l5.3,5.3
	C43.7,26.3,43.7,26.9,43.3,27.3z"/>
</svg>
