<?xml version="1.0" encoding="utf-8"?>
<!-- Generator: Adobe Illustrator 21.0.0, SVG Export Plug-In . SVG Version: 6.00 Build 0)  -->
<svg version="1.1" id="Слой_1" xmlns="http://www.w3.org/2000/svg" xmlns:xlink="http://www.w3.org/1999/xlink" x="0px" y="0px"
	 viewBox="0 0 44 44" xml:space="preserve">
<style type="text/css">
	.st0{fill:#FFFFFF;}
	.st1{fill:none;}
	.st2{fill:#333333;}
</style>
<g>
	<path d="M22,9.5v1.7l0.2,0c2.9,0.1,5.6,1.2,7.6,3.3c2,2.1,3.1,4.8,3,7.7C32.7,28,27.9,32.8,22,32.8l-0.2,0
		c-6-0.1-10.7-5-10.6-11C11.3,16,16.1,11.2,22,11.2V9.5 M22,9.5C15.2,9.5,9.6,15,9.5,21.8c-0.1,6.9,5.4,12.6,12.3,12.7
		c0.1,0,0.2,0,0.2,0c6.8,0,12.4-5.5,12.5-12.3c0.1-6.9-5.4-12.6-12.3-12.7C22.1,9.5,22.1,9.5,22,9.5L22,9.5z"/>
</g>
<path d="M21.7,15.5L21.7,15.5c0.8,0,1.5,0.6,1.5,1.5c0,0.8-0.7,1.4-1.5,1.4l0,0c-0.8,0-1.4-0.7-1.4-1.5
	C20.3,16.1,20.9,15.5,21.7,15.5z M24.1,28.5h-4.2v-1.7h0.8V21h-0.8v-1.1h3.4v6.8h0.8V28.5z"/>
</svg>
