<svg fill="#FFFFFF" version="1.1" id="Слой_1" xmlns="http://www.w3.org/2000/svg" xmlns:xlink="http://www.w3.org/1999/xlink" x="0px" y="0px"
	 viewBox="0 0 190 190" style="enable-background:new 0 0 190 190;" xml:space="preserve">
<path d="M101.7,107.1c0,2,0.3,8.8,0.9,10s1.3,2.2,2.3,2.9c1,0.7,2.1,1.1,3.4,1.3c1.3,0.2,2.7,0.3,4.2,0.3h2.9v5.4H74.9v-5.5h2.9
	c1.5,0,2.8-0.1,4.1-0.3s2.4-0.6,3.4-1.2s1.7-1.5,2.3-2.6c0.6-1.1,0.9-7.9,0.9-9.8V69.4h-6.4c-1.9,0-3.5,0.3-4.8,0.9
	s-2.3,1.4-3.2,2.3c-0.9,1-1.5,2.1-1.8,3.4c-0.4,1.3-0.7,2.7-0.9,4.1l-0.7,5.5H64L64.7,63h60.7l0.6,22.7h-6.8l-0.6-5.5
	c-0.2-1.5-0.4-2.8-0.9-4.1c-0.4-1.3-1-2.4-1.8-3.4s-1.8-1.7-3.2-2.3c-1.3-0.6-2.9-0.9-4.9-0.9h-6.2
	C101.7,69.4,101.7,107.1,101.7,107.1z"/>
</svg>
