<?xml version="1.0" encoding="utf-8"?>
<!-- Generator: Adobe Illustrator 21.0.0, SVG Export Plug-In . SVG Version: 6.00 Build 0)  -->
<svg version="1.1" id="Слой_1" xmlns="http://www.w3.org/2000/svg" xmlns:xlink="http://www.w3.org/1999/xlink" x="0px" y="0px"
	 viewBox="0 0 56.5 56.5" style="enable-background:new 0 0 56.5 56.5;" xml:space="preserve">
<polygon points="44.9,19.7 43.2,21.3 49,27.1 29.4,27.1 29.4,7.5 35.2,13.3 36.8,11.6 28.3,3 19.7,11.6 21.3,13.3
	27.1,7.5 27.1,27.1 7.5,27.1 13.3,21.3 11.6,19.7 3,28.3 11.6,36.8 13.3,35.2 7.5,29.4 27.1,29.4 27.1,49 21.3,43.2 19.7,44.9 
	28.3,53.5 36.8,44.9 35.2,43.2 29.4,49 29.4,29.4 49,29.4 43.2,35.2 44.9,36.8 53.5,28.3 "/>
</svg>
