<?xml version="1.0" encoding="UTF-8" standalone="no"?>
<svg
   fill="#FFFFFF"
   xmlns:dc="http://purl.org/dc/elements/1.1/"
   xmlns:cc="http://creativecommons.org/ns#"
   xmlns:rdf="http://www.w3.org/1999/02/22-rdf-syntax-ns#"
   xmlns:svg="http://www.w3.org/2000/svg"
   xmlns="http://www.w3.org/2000/svg"
   height="25"
   width="25"
   xml:space="preserve"
   viewBox="0 0 25 25"
   y="0px"
   x="0px"
   version="1.1">
    <polygon transform="matrix(0.4950495,0,0,0.4950495,-1.4851485,-1.4851482)" points="44.9,36.8 53.5,28.3 44.9,19.7 43.2,21.3 49,27.1 29.4,27.1 29.4,7.5 35.2,13.3 36.8,11.6 28.3,3 19.7,11.6 21.3,13.3 27.1,7.5 27.1,27.1 7.5,27.1 13.3,21.3 11.6,19.7 3,28.3 11.6,36.8 13.3,35.2 7.5,29.4 27.1,29.4 27.1,49 21.3,43.2 19.7,44.9 28.3,53.5 36.8,44.9 35.2,43.2 29.4,49 29.4,29.4 49,29.4 43.2,35.2 " />
</svg>