<?xml version="1.0" encoding="UTF-8" standalone="no"?>
<!-- Generator: Adobe Illustrator 21.0.0, SVG Export Plug-In  -->

<svg
   xmlns:dc="http://purl.org/dc/elements/1.1/"
   xmlns:cc="http://creativecommons.org/ns#"
   xmlns:rdf="http://www.w3.org/1999/02/22-rdf-syntax-ns#"
   xmlns:svg="http://www.w3.org/2000/svg"
   xmlns="http://www.w3.org/2000/svg"
   xmlns:sodipodi="http://sodipodi.sourceforge.net/DTD/sodipodi-0.dtd"
   xmlns:inkscape="http://www.inkscape.org/namespaces/inkscape"
   version="1.1"
   x="0px"
   y="0px"
   width="30"
   height="30"
   viewBox="0 0 30 30"
   style="overflow:scroll"
   xml:space="preserve"
   id="svg2"
   inkscape:version="0.91 r13725"
   sodipodi:docname="move.svg"><metadata
     id="metadata32"><rdf:RDF><cc:Work
         rdf:about=""><dc:format>image/svg+xml</dc:format><dc:type
           rdf:resource="http://purl.org/dc/dcmitype/StillImage" /><dc:title></dc:title></cc:Work></rdf:RDF></metadata><sodipodi:namedview
     pagecolor="#ffffff"
     bordercolor="#666666"
     borderopacity="1"
     objecttolerance="10"
     gridtolerance="10"
     guidetolerance="10"
     inkscape:pageopacity="0"
     inkscape:pageshadow="2"
     inkscape:window-width="1366"
     inkscape:window-height="744"
     id="namedview30"
     showgrid="false"
     inkscape:zoom="4.1769912"
     inkscape:cx="28.25"
     inkscape:cy="28.25"
     inkscape:window-x="0"
     inkscape:window-y="24"
     inkscape:window-maximized="1"
     inkscape:current-layer="svg2" /><style
     type="text/css"
     id="style4">
	.st0{fill:#FFFFFF;}
</style><defs
     id="defs6" /><g
     id="g8"
     transform="scale(0.53097345,0.53097345)"><g
       id="g10"><polygon
         class="st0"
         points="0,28.25 9.571,37.169 11.527,34.914 6.001,29.75 20.017,29.75 20.017,29.25 20.017,29.25 20.017,27.25 20.017,27.25 20.017,26.75 6.001,26.75 11.527,21.586 9.571,19.331 "
         id="polygon12"
         style="fill:#ffffff" /></g><g
       id="g14"><polygon
         class="st0"
         points="50.499,29.75 44.974,34.914 46.928,37.169 56.5,28.25 46.928,19.331 44.974,21.586 50.499,26.75 36.483,26.75 36.483,27.75 36.483,27.75 36.483,28.75 36.483,28.75 36.483,29.75 "
         id="polygon16"
         style="fill:#ffffff" /></g><g
       id="g18"><polygon
         class="st0"
         points="37.169,9.571 28.25,0 19.331,9.571 21.587,11.526 26.75,6.001 26.75,20.017 27.25,20.017 27.25,20.017 29.25,20.017 29.25,20.017 29.75,20.017 29.75,6.001 34.914,11.526 "
         id="polygon20"
         style="fill:#ffffff" /></g><g
       id="g22"><polygon
         class="st0"
         points="19.331,46.929 28.25,56.5 37.169,46.929 34.914,44.974 29.75,50.499 29.75,36.483 29.25,36.483 29.25,36.483 27.25,36.483 27.25,36.483 26.75,36.483 26.75,50.499 21.587,44.974 "
         id="polygon24"
         style="fill:#ffffff" /></g><g
       id="g26"><circle
         class="st0"
         cx="28.25"
         cy="27.75"
         r="2.7579999"
         id="circle28"
         style="fill:#ffffff" /></g></g></svg>