<?xml version="1.0" encoding="utf-8"?>
<!-- Generator: Adobe Illustrator 21.0.0, SVG Export Plug-In . SVG Version: 6.00 Build 0)  -->
<svg version="1.1" id="Слой_1" xmlns="http://www.w3.org/2000/svg" xmlns:xlink="http://www.w3.org/1999/xlink" x="0px" y="0px"
	 viewBox="0 0 44 44" style="enable-background:new 0 0 44 44;" xml:space="preserve">
<style type="text/css">
	.st0{fill:#FFFFFF;}
	.st1{fill:none;}
	.st2{fill:#333333;}
</style>
<path d="M33.8,27.5c-2.5-2.3-3-5.5-3.4-8.6c-0.7-4.3-1.4-9.1-8.3-9.1c-6.9,0-7.7,4.8-8.3,9.1c-0.5,3.1-1,6.3-3.4,8.6
	c-0.4,0.4-0.5,0.9-0.3,1.4c0.2,0.5,0.7,0.8,1.2,0.8h6.3c0,2.5,2,4.6,4.6,4.6c2.5,0,4.6-2,4.6-4.6h6.3c0.5,0,1-0.3,1.2-0.8
	C34.3,28.4,34.1,27.8,33.8,27.5z M22,32.5c-1.6,0-2.9-1.3-2.9-2.9h5.7C24.9,31.2,23.6,32.5,22,32.5z M26.2,28h-1.9h-4.6h-1.9h-5.7
	c2.3-2.6,2.8-5.9,3.3-8.9c0.7-4.7,1.4-7.6,6.6-7.6c5.2,0,5.9,2.9,6.7,7.7c0.5,2.9,1,6.2,3.3,8.8H26.2z"/>
</svg>
