<?xml version="1.0" encoding="utf-8"?>
<!-- Generator: Adobe Illustrator 21.0.0, SVG Export Plug-In . SVG Version: 6.00 Build 0)  -->
<svg version="1.1" id="Слой_1" xmlns="http://www.w3.org/2000/svg" xmlns:xlink="http://www.w3.org/1999/xlink" x="0px" y="0px"
	 viewBox="0 0 63 63" style="enable-background:new 0 0 63 63;" xml:space="preserve">
<path d="M31.5,39.5c-4.4,0-8-3.6-8-8c0-4.4,3.6-8,8-8s8,3.6,8,8C39.5,35.9,35.9,39.5,31.5,39.5z M31.5,27.2
	c-2.4,0-4.3,1.9-4.3,4.3s1.9,4.3,4.3,4.3c2.4,0,4.3-1.9,4.3-4.3S33.9,27.2,31.5,27.2z"/>
<path d="M31.5,45.4c-12,0-21.3-12.1-21.7-12.6l-1-1.3l1-1.3c0.4-0.5,9.7-12.6,21.7-12.6c12,0,21.3,12.1,21.7,12.6l1,1.3
	l-1,1.3C52.8,33.3,43.5,45.4,31.5,45.4z M14.3,31.5c2.6,2.9,9.4,9.6,17.2,9.6c7.8,0,14.6-6.7,17.2-9.6c-2.6-2.9-9.4-9.6-17.2-9.6
	C23.7,21.9,16.9,28.6,14.3,31.5z"/>
</svg>
