<?xml version="1.0" encoding="utf-8"?>
<!-- Generator: Adobe Illustrator 21.0.0, SVG Export Plug-In . SVG Version: 6.00 Build 0)  -->
<svg version="1.1" id="Слой_1" xmlns="http://www.w3.org/2000/svg" xmlns:xlink="http://www.w3.org/1999/xlink" x="0px" y="0px"
	 viewBox="0 0 44 44" xml:space="preserve">
<style type="text/css">
	.st0{fill:#333333;}
</style>
<g>
	<path d="M29.1,18.9h-1.5h-9.7V16c0-2.2,1.8-4.1,4.1-4.1c2.3,0,4.1,1.8,4.1,4v0.3h2.7v-0.3c0-3.7-3.1-6.6-6.8-6.6
		c-3.7,0-6.7,3-6.7,6.7v2.9h-0.3c-1,0-1.9,0.8-1.9,1.9v12c0,1,0.8,1.9,1.9,1.9h14.2c1,0,1.9-0.8,1.9-1.9v-12
		C31,19.8,30.1,18.9,29.1,18.9z M15.7,21.6h11.9h0.7V32H15.7V21.6z"/>
	<path d="M23.5,25.8c0.1-0.5,0-0.9-0.3-1.3c-0.3-0.4-0.7-0.6-1.2-0.6s-0.9,0.2-1.2,0.6c-0.3,0.4-0.4,0.9-0.3,1.3
		l0.1,0.5l-0.4,2.6c0,0.2,0,0.4,0.2,0.6c0.1,0.2,0.4,0.3,0.6,0.3H23c0.2,0,0.4-0.1,0.6-0.3c0.1-0.2,0.2-0.4,0.2-0.6l-0.4-2.6
		L23.5,25.8z"/>
</g>
</svg>
