<?xml version="1.0" encoding="utf-8"?>
<!-- Generator: Adobe Illustrator 21.0.0, SVG Export Plug-In . SVG Version: 6.00 Build 0)  -->
<svg version="1.1" id="Слой_1" xmlns="http://www.w3.org/2000/svg" xmlns:xlink="http://www.w3.org/1999/xlink" x="0px" y="0px"
	 viewBox="0 0 44 44" xml:space="preserve">
<style type="text/css">
	.st0{fill:#333333;}
</style>
<path d="M22,17.4c3.1,0,5.5,2.5,5.5,5.5c0,0.7-0.1,1.4-0.4,2l3.2,3.2c1.7-1.4,3-3.2,3.8-5.3c-1.9-4.9-6.6-8.3-12.2-8.3
	c-1.5,0-3,0.3-4.4,0.8l2.4,2.4C20.6,17.6,21.3,17.4,22,17.4z M10.9,14.4l2.5,2.5l0.5,0.5c-1.8,1.4-3.3,3.3-4.1,5.5
	c1.9,4.9,6.6,8.3,12.2,8.3c1.7,0,3.4-0.3,4.8-0.9l0.5,0.5l3.2,3.2l1.4-1.4L12.3,13L10.9,14.4z M17.1,20.5l1.7,1.7
	c-0.1,0.2-0.1,0.5-0.1,0.7c0,1.8,1.5,3.3,3.3,3.3c0.2,0,0.5,0,0.7-0.1l1.7,1.7c-0.7,0.4-1.6,0.6-2.4,0.6c-3.1,0-5.5-2.5-5.5-5.5
	C16.5,22.1,16.7,21.3,17.1,20.5z M21.8,19.6l3.5,3.5l0-0.2c0-1.8-1.5-3.3-3.3-3.3L21.8,19.6z"/>
</svg>
