<?xml version="1.0" encoding="utf-8"?>
<!-- Generator: Adobe Illustrator 21.0.0, SVG Export Plug-In . SVG Version: 6.00 Build 0)  -->
<svg version="1.1" id="Слой_1" xmlns="http://www.w3.org/2000/svg" xmlns:xlink="http://www.w3.org/1999/xlink" x="0px" y="0px"
	 viewBox="0 0 44 44" xml:space="preserve">
<style type="text/css">
	.st0{fill:#333333;}
</style>
<path d="M27.5,25.3c-1.2,0-2,0.4-2.8,1.1l-6.9-3.5v-0.4l6.9-3.4c0.9,0.7,1.8,1,2.8,1c2.5,0,4.3-1.9,4.3-4.3
	c0-2.5-1.9-4.3-4.3-4.3s-4.3,1.9-4.3,4.3v0.6l-6.6,3.2c-0.6-0.5-1.7-1.3-3.1-1.3c-2.5,0-4.3,1.9-4.3,4.3s1.9,4.3,4.3,4.3
	c1,0,2-0.4,3.1-1.3l6.7,3.2v0.6c0,2.5,1.9,4.3,4.3,4.3c2.5,0,4.3-1.9,4.3-4.3C31.8,27,29.9,25.3,27.5,25.3z M27.5,27.5
	c1,0,2,0.9,2,2s-0.9,2-2,2s-2-0.9-2-2S26.5,27.5,27.5,27.5z M27.5,17.7c-1,0-2-0.9-2-2c0-1,0.9-2,2-2s2,0.9,2,2
	C29.5,16.7,28.5,17.7,27.5,17.7z M15.6,22.6c0,1-0.9,2-2,2s-2-0.9-2-2s0.9-2,2-2S15.6,21.5,15.6,22.6z"/>
</svg>
