<?xml version="1.0" encoding="utf-8"?>
<!-- Generator: Adobe Illustrator 21.0.0, SVG Export Plug-In . SVG Version: 6.00 Build 0)  -->
<svg version="1.1" id="Слой_1" xmlns="http://www.w3.org/2000/svg" xmlns:xlink="http://www.w3.org/1999/xlink" x="0px" y="0px"
	 viewBox="0 0 44 44" xml:space="preserve">
<style type="text/css">
	.st0{fill:#333333;}
</style>
<path d="M33.1,26.4L33.1,26.4c-2-1.8-2.5-4.4-2.8-7.3l0-0.1c-0.6-3.8-1.4-8.6-8.1-8.6c-6.9,0-7.6,5.1-8.1,8.8
	c-0.4,2.6-0.9,5.4-2.8,7.3c-0.5,0.5-0.7,1.3-0.4,2c0.3,0.7,1,1.2,1.7,1.2h5c0.3,2.3,2.3,4.1,4.8,4.1c2.4,0,4.4-1.8,4.8-4.1h5
	c0.8,0,1.4-0.5,1.7-1.2l0.1-0.1v-0.1C33.7,27.6,33.5,26.9,33.1,26.4z M23.7,29.5c-0.1,0.2-0.2,0.4-0.4,0.6c-0.3,0.4-0.8,0.6-1.3,0.6
	c-0.8,0-1.5-0.5-1.8-1.2H23.7z M16.8,19.7l0-0.2c0.7-4.4,1.3-6.2,5.2-6.2c4.1,0,4.6,2,5.3,6.3l0,0.3c0.4,2.2,0.8,4.6,2.2,6.8h-15
	C16,24.5,16.4,22,16.8,19.7z"/>
</svg>
