<?xml version="1.0" encoding="utf-8"?>
<!-- Generator: Adobe Illustrator 21.0.0, SVG Export Plug-In . SVG Version: 6.00 Build 0)  -->
<svg version="1.1" id="Слой_1" xmlns="http://www.w3.org/2000/svg" xmlns:xlink="http://www.w3.org/1999/xlink" x="0px" y="0px"
	 viewBox="0 0 44 44" xml:space="preserve">
<style type="text/css">
	.st0{fill:#333333;}
</style>
<path d="M22,14.7c-5.5,0-10.3,3.4-12.2,8.3c1.9,4.9,6.6,8.3,12.2,8.3s10.3-3.4,12.2-8.3C32.3,18.2,27.5,14.7,22,14.7z
	 M22,28.6c-3.1,0-5.5-2.5-5.5-5.5s2.5-5.5,5.5-5.5s5.5,2.5,5.5,5.5S25.1,28.6,22,28.6z M22,19.7c-1.8,0-3.3,1.5-3.3,3.3
	c0,1.8,1.5,3.3,3.3,3.3s3.3-1.5,3.3-3.3C25.3,21.2,23.8,19.7,22,19.7z"/>
</svg>
