<?xml version="1.0" encoding="utf-8"?>
<!-- Generator: Adobe Illustrator 21.0.0, SVG Export Plug-In . SVG Version: 6.00 Build 0)  -->
<svg version="1.1" id="Слой_1" xmlns="http://www.w3.org/2000/svg" xmlns:xlink="http://www.w3.org/1999/xlink" x="0px" y="0px"
	 viewBox="0 0 44 44" xml:space="preserve">
<style type="text/css">
	.st0{fill:none;}
	.st1{fill:#333333;}
</style>
<g>
	<path d="M16.9,31.9c-1.3,1.3-3.5,1.3-4.9,0c-1.3-1.3-1.3-3.5,0-4.9l6.1-6.1c1.3-1.3,3.5-1.3,4.9,0l0.3,0.3l2.6-2.6
		l-0.3-0.3c-1.3-1.3-3.1-2-5.1-2l0,0c-2,0-3.6,0.7-4.9,2l-6.1,6.1l-0.2,0.2l0,0c-1.2,1.3-2,3.1-2,4.9c0,2,0.7,3.8,2.1,5.1
		c1.5,1.3,3.3,2,5.1,2c1.8,0,3.6-0.7,4.9-2l4-4l-2.6-2.6L16.9,31.9z"/>
	<path d="M34.5,9.5c-1.3-1.3-3.1-2-5.1-2l0,0c-2,0-3.6,0.7-4.9,2l-3.8,3.8l2.6,2.6l3.8-3.8c1.3-1.3,3.5-1.3,4.9,0
		c1.3,1.3,1.3,3.5,0,4.9L26,23.2c-1.3,1.3-3.5,1.3-4.9,0l-0.3-0.3L18,25.5l0.3,0.3c1.5,1.3,3.3,2,5.1,2s3.6-0.7,5.1-2l6.1-6.1
		C37.3,16.7,37.3,12.1,34.5,9.5z"/>
</g>
</svg>
