<?xml version="1.0" encoding="utf-8"?>
<!-- Generator: Adobe Illustrator 21.0.0, SVG Export Plug-In . SVG Version: 6.00 Build 0)  -->
<svg version="1.1" id="Layer_1" xmlns="http://www.w3.org/2000/svg" xmlns:xlink="http://www.w3.org/1999/xlink" x="0px" y="0px"
	 viewBox="0 0 35 35" xml:space="preserve">
<style type="text/css">
	.st0{fill:none;}
	.st1{fill:#FFFFFF;}
</style>

<g>
	<path d="M26.5,12.9c-0.6,0.3-1.4,0.5-2.1,0.5c0.8-0.4,1.4-1.2,1.6-2c-0.6,0.4-1.4,0.8-2.3,0.9
		c-0.6-0.6-1.6-1.2-2.6-1.2c-2,0-3.7,1.7-3.7,3.7c0,0.3,0,0.5,0.1,0.8c-3.2-0.1-5.8-1.6-7.6-3.8c-0.3,0.5-0.5,1.2-0.5,1.8
		c0,1.4,0.6,2.3,1.6,3c-0.6,0-1.2-0.1-1.7-0.4l0,0c0,1.8,1.4,3.2,2.9,3.5c-0.3,0.1-0.6,0.1-0.9,0.1s-0.5,0-0.6-0.1
		c0.5,1.4,1.8,2.6,3.5,2.6c-1.4,0.9-2.9,1.6-4.7,1.6c-0.3,0-0.5,0-0.9,0c1.6,1.1,3.5,1.7,5.6,1.7c6.7,0,10.5-5.6,10.5-10.5
		c0-0.1,0-0.3,0-0.5C25.4,14.3,26.1,13.5,26.5,12.9z"/>
</g>
</svg>
