<?xml version="1.0" encoding="utf-8"?>
<!-- Generator: Adobe Illustrator 19.1.0, SVG Export Plug-In . SVG Version: 6.00 Build 0)  -->
<svg version="1.1" id="Слой_1" xmlns="http://www.w3.org/2000/svg" xmlns:xlink="http://www.w3.org/1999/xlink" x="0px" y="0px"
	 viewBox="0 0 63 63" enable-background="new 0 0 63 63" xml:space="preserve">
<path fill="#FFFFFF" d="M42.479,18.971l-17.038,5.492c-0.165,0.054-0.277,0.207-0.277,0.381l0.003,13.705l-0.045,0.394
	c-0.187,0.837-0.921,1.665-1.918,2.161c-0.721,0.358-1.536,0.507-2.229,0.407c-0.653-0.093-1.131-0.382-1.345-0.814
	c-0.202-0.405-0.165-0.928,0.106-1.469c0.332-0.662,0.944-1.24,1.724-1.628c0.649-0.324,1.362-0.481,2.001-0.435
	c0.104,0,0.21-0.028,0.29-0.099s0.129-0.169,0.136-0.274l0.112-1.706c0.015-0.221-0.152-0.411-0.373-0.426
	c-1.09-0.067-2.228,0.168-3.284,0.692c-1.264,0.63-2.275,1.606-2.849,2.75c-0.634,1.264-0.674,2.582-0.111,3.713
	c0.696,1.398,2.211,2.233,4.052,2.233c0.972,0,1.971-0.242,2.889-0.698c1.711-0.852,2.931-2.319,3.268-3.958l0.078-0.643
	l0.005-12.37l12.819-4.133v15.899l-0.003,0.336c-0.053,0.901-0.84,1.882-1.957,2.438c-0.78,0.39-1.612,0.528-2.337,0.395
	c-0.596-0.11-1.035-0.395-1.237-0.801c-0.202-0.405-0.164-0.927,0.107-1.47c0.331-0.66,0.942-1.238,1.725-1.627
	c0.583-0.291,1.236-0.45,1.815-0.441h0.001c0.22,0,0.398-0.178,0.4-0.396l0.015-1.71c0.001-0.107-0.063-0.21-0.139-0.285
	c-0.075-0.076-0.199-0.119-0.306-0.119c-0.976,0-1.98,0.244-2.905,0.705c-1.265,0.63-2.277,1.605-2.85,2.749
	c-0.634,1.265-0.673,2.583-0.111,3.713c0.563,1.13,1.638,1.894,3.027,2.15c1.258,0.231,2.648,0.015,3.912-0.615
	c1.941-0.965,3.255-2.759,3.348-4.591l0.005-19.225c0-0.128-0.062-0.248-0.165-0.323S42.602,18.932,42.479,18.971z"/>
</svg>
