<?xml version="1.0" encoding="utf-8"?>
<!-- Generator: Adobe Illustrator 19.1.0, SVG Export Plug-In . SVG Version: 6.00 Build 0)  -->
<svg version="1.1" id="Слой_1" xmlns="http://www.w3.org/2000/svg" xmlns:xlink="http://www.w3.org/1999/xlink" x="0px" y="0px"
	 viewBox="0 0 63 63" enable-background="new 0 0 63 63" xml:space="preserve">
<path fill="#FFFFFF" d="M17.271,43.303h27.333V19.697H17.271V43.303z M19.297,21.722h23.282v19.555H19.297V21.722z"/>
<path fill="#FFFFFF" d="M36.508,29.595l-7.816-4.513c-0.34-0.196-0.72-0.295-1.1-0.295c-0.38,0-0.76,0.098-1.1,0.295
	c-0.681,0.393-1.1,1.119-1.1,1.905v9.025c0,0.786,0.419,1.512,1.1,1.905c0.34,0.196,0.72,0.295,1.1,0.295s0.76-0.098,1.1-0.295
	l7.816-4.513c0.681-0.393,1.1-1.119,1.1-1.905C37.608,30.714,37.189,29.988,36.508,29.595z M27.592,36.013v-9.025l7.816,4.513
	L27.592,36.013z"/>
</svg>
