<?xml version="1.0" encoding="utf-8"?>
<!-- Generator: Adobe Illustrator 19.1.0, SVG Export Plug-In . SVG Version: 6.00 Build 0)  -->
<svg version="1.1" id="Слой_1" xmlns="http://www.w3.org/2000/svg" xmlns:xlink="http://www.w3.org/1999/xlink" x="0px" y="0px"
	 viewBox="0 0 63 63" enable-background="new 0 0 63 63" xml:space="preserve">
<polygon fill="#FFFFFF" points="20.757,30.195 19.507,28.886 13.991,33.351 19.507,37.835 20.777,36.525 16.788,33.37 "/>
<polygon fill="#FFFFFF" points="42.204,30.195 46.153,33.37 42.204,36.525 43.455,37.835 48.991,33.351 43.455,28.886 "/>
<path fill="#FFFFFF" d="M39.582,27.05c-0.644,0.379-1.358,0.654-2.117,0.803c-0.608-0.643-1.475-1.045-2.433-1.045
	c-1.841,0-3.334,1.482-3.334,3.309c0,0.259,0.03,0.512,0.086,0.754c-2.771-0.138-5.227-1.455-6.872-3.457
	c-0.287,0.489-0.451,1.057-0.451,1.664c0,1.148,0.589,2.161,1.483,2.754c-0.547-0.017-1.061-0.166-1.51-0.414
	c0,0.014,0,0.028,0,0.042c0,1.603,1.149,2.941,2.674,3.245c-0.28,0.076-0.574,0.116-0.878,0.116c-0.215,0-0.424-0.021-0.627-0.06
	c0.424,1.315,1.655,2.271,3.115,2.298c-1.141,0.887-2.579,1.417-4.14,1.417c-0.268,0-0.532-0.016-0.792-0.046v0.002
	c1.424,0.905,3.105,1.445,4.912,1.481h0.47c5.957-0.148,9.21-5.105,9.21-9.411c0-0.144-0.003-0.286-0.01-0.428
	c0.651-0.466,1.217-1.049,1.663-1.713c-0.598,0.263-1.24,0.441-1.915,0.521C38.804,28.472,39.333,27.823,39.582,27.05z"/>
</svg>
