<?xml version="1.0" encoding="utf-8"?>
<!-- Generator: Adobe Illustrator 19.1.0, SVG Export Plug-In . SVG Version: 6.00 Build 0)  -->
<svg version="1.1" id="Слой_1" xmlns="http://www.w3.org/2000/svg" xmlns:xlink="http://www.w3.org/1999/xlink" x="0px" y="0px"
	 viewBox="0 0 63 63" enable-background="new 0 0 63 63" xml:space="preserve">
<rect x="28.063" y="37.638" fill="#FFFFFF" width="20.375" height="1.902"/>
<rect x="28.063" y="31.508" fill="#FFFFFF" width="20.375" height="1.902"/>
<rect x="28.063" y="25.378" fill="#FFFFFF" width="20.375" height="1.902"/>
<path fill="#FFFFFF" d="M21.652,25.253h-4.204v3.809h1.86c0,1.465-0.64,3.018-1.919,4.658h2.666c0.586-0.82,0.998-1.665,1.237-2.534
	s0.359-1.895,0.359-3.076V25.253z"/>
<rect x="13.438" y="43.642" fill="#FFFFFF" width="2.052" height="2.051"/>
<rect x="29.851" y="43.642" fill="#FFFFFF" width="2.052" height="2.051"/>
<rect x="25.748" y="43.642" fill="#FFFFFF" width="2.051" height="2.051"/>
<rect x="21.645" y="43.642" fill="#FFFFFF" width="2.052" height="2.051"/>
<rect x="17.541" y="43.642" fill="#FFFFFF" width="2.052" height="2.051"/>
<rect x="42.162" y="43.642" fill="#FFFFFF" width="2.052" height="2.051"/>
<rect x="33.955" y="43.642" fill="#FFFFFF" width="2.052" height="2.051"/>
<rect x="46.265" y="43.642" fill="#FFFFFF" width="2.052" height="2.051"/>
<rect x="38.058" y="43.642" fill="#FFFFFF" width="2.052" height="2.051"/>
<rect x="46.64" y="19.142" fill="#FFFFFF" width="2.052" height="2.051"/>
<rect x="38.433" y="19.142" fill="#FFFFFF" width="2.052" height="2.051"/>
<rect x="34.33" y="19.142" fill="#FFFFFF" width="2.052" height="2.051"/>
<rect x="30.226" y="19.142" fill="#FFFFFF" width="2.052" height="2.051"/>
<rect x="42.537" y="19.142" fill="#FFFFFF" width="2.052" height="2.051"/>
<rect x="26.123" y="19.142" fill="#FFFFFF" width="2.051" height="2.051"/>
<rect x="22.02" y="19.142" fill="#FFFFFF" width="2.052" height="2.051"/>
<rect x="13.813" y="19.142" fill="#FFFFFF" width="2.052" height="2.051"/>
<rect x="17.916" y="19.142" fill="#FFFFFF" width="2.052" height="2.051"/>
</svg>
