<?xml version="1.0" encoding="utf-8"?>
<!-- Generator: Adobe Illustrator 19.1.0, SVG Export Plug-In . SVG Version: 6.00 Build 0)  -->
<svg version="1.1" id="Слой_1" xmlns="http://www.w3.org/2000/svg" xmlns:xlink="http://www.w3.org/1999/xlink" x="0px" y="0px"
	 viewBox="0 0 63 63" enable-background="new 0 0 63 63" xml:space="preserve">
<path fill="#FFFFFF" d="M44.604,20.46H17.271v23.607h27.333V20.46z M21.507,42.041l6.085-6.085l6.085,6.085H21.507z M42.579,42.041
	h-6.073l-8.914-8.914l-8.295,8.296V22.486h23.282V42.041z"/>
<path fill="#FFFFFF" d="M36.418,35.784c2.452,0,4.447-1.995,4.447-4.447s-1.995-4.447-4.447-4.447s-4.447,1.995-4.447,4.447
	S33.966,35.784,36.418,35.784z M36.418,28.889c1.35,0,2.447,1.098,2.447,2.447s-1.098,2.447-2.447,2.447s-2.447-1.098-2.447-2.447
	S35.068,28.889,36.418,28.889z"/>
</svg>
