<?xml version="1.0" encoding="utf-8"?>
<!-- Generator: Adobe Illustrator 21.0.0, SVG Export Plug-In . SVG Version: 6.00 Build 0)  -->
<svg fill="#FFFFFF" version="1.1" id="Слой_1" xmlns="http://www.w3.org/2000/svg" xmlns:xlink="http://www.w3.org/1999/xlink" x="0px" y="0px"
	 viewBox="0 0 18.1 16.6" style="enable-background:new 0 0 18.1 16.6;" xml:space="preserve">
<path d="M9.1,10.5c-2.6,0-4.7-2.4-4.7-5.3S6.5,0,9.1,0s4.7,2.4,4.7,5.3S11.7,10.5,9.1,10.5z M9.1,1C7,1,5.3,2.9,5.3,5.3
	S7,9.5,9.1,9.5s3.7-1.9,3.7-4.3S11.1,1,9.1,1z"/>
<path class="st0" d="M0.5,16.6c-0.1,0-0.1,0-0.2,0c-0.3-0.1-0.4-0.4-0.3-0.7c1.1-2.5,3.5-4.1,6.2-4.1h5.7c2.7,0,5.1,1.6,6.2,4.1
	c0.1,0.3,0,0.5-0.3,0.7c-0.3,0.1-0.5,0-0.7-0.3c-0.9-2.1-3-3.5-5.2-3.5H6.2c-2.3,0-4.4,1.4-5.3,3.5C0.9,16.5,0.7,16.6,0.5,16.6z"/>
</svg>
