<?xml version="1.0" encoding="utf-8"?>
<!-- Generator: Adobe Illustrator 19.1.0, SVG Export Plug-In . SVG Version: 6.00 Build 0)  -->
<svg version="1.1" id="Слой_1" xmlns="http://www.w3.org/2000/svg" xmlns:xlink="http://www.w3.org/1999/xlink" x="0px" y="0px"
	 viewBox="0 0 63 63" enable-background="new 0 0 63 63" xml:space="preserve">
<path fill="#FFFFFF" d="M26.559,28.105c-0.813,0-1.514,0.191-2.102,0.574s-1.077,0.998-1.466,1.846H22.95
	c0.055-0.711,0.082-1.439,0.082-2.184v-4.153H20.15v15.217h2.881v-5.937c0-0.937,0.213-1.704,0.641-2.302
	c0.427-0.598,0.99-0.897,1.687-0.897c1.319,0,1.979,0.974,1.979,2.922v6.214h2.871v-7.034c0-1.395-0.314-2.454-0.943-3.179
	S27.735,28.105,26.559,28.105z"/>
<path fill="#FFFFFF" d="M36.521,35.785c0.394-0.39,0.829-0.776,1.308-1.159s0.973-0.776,1.481-1.179
	c0.51-0.403,0.973-0.835,1.39-1.297c0.417-0.461,0.759-0.965,1.025-1.512s0.4-1.159,0.4-1.835c0-1.285-0.418-2.283-1.252-2.994
	s-2.029-1.066-3.588-1.066c-1.443,0-2.583,0.352-3.42,1.056c-0.838,0.704-1.338,1.726-1.502,3.066l2.901,0.164
	c0.096-0.663,0.306-1.16,0.631-1.492c0.324-0.331,0.794-0.497,1.409-0.497c1.265,0,1.897,0.629,1.897,1.887
	c0,0.513-0.203,1.036-0.61,1.569c-0.406,0.533-1.116,1.21-2.127,2.03c-1.054,0.854-1.927,1.675-2.62,2.461
	c-0.694,0.786-1.229,1.593-1.604,2.42v2H42.35v-2.369h-6.705C35.835,36.592,36.128,36.175,36.521,35.785z"/>
</svg>
