<?xml version="1.0" encoding="utf-8"?>
<!-- Generator: Adobe Illustrator 21.0.0, SVG Export Plug-In . SVG Version: 6.00 Build 0)  -->
<svg version="1.1" id="Слой_1" xmlns="http://www.w3.org/2000/svg" xmlns:xlink="http://www.w3.org/1999/xlink" x="0px" y="0px"
	 viewBox="0 0 44 44" style="enable-background:new 0 0 44 44;" xml:space="preserve">
<g>
	<path d="M18.9,28c-0.8,0.8-2.1,0.8-3,0c-0.8-0.8-0.8-2.1,0-3l2.1-2.1l-1.6-1.5l-2,2l-0.1,0.1c-0.7,0.8-1.2,1.9-1.2,3
		c0,1.2,0.4,2.3,1.3,3.1c0.9,0.8,2,1.2,3.1,1.2c1.1,0,2.2-0.4,3-1.2l2.1-2.1L21,25.9L18.9,28z"/>
	<path d="M25.1,16c0.8-0.8,2.1-0.8,3,0c0.8,0.8,0.8,2.1,0,3L26,21.1l1.6,1.6l2.1-2.1c1.6-1.8,1.6-4.6-0.1-6.2
		c-0.8-0.8-1.9-1.2-3.1-1.2c-1.2,0-2.2,0.4-3,1.2l-2.1,2.1l1.6,1.6L25.1,16z"/>
	<polygon points="23.8,23.1 21.5,20.8 19.5,18.8 14.4,13.6 13.3,14.7 18.2,19.6 19.8,21.2 29,30.4 30.1,29.3 25.5,24.7
			"/>
</g>
</svg>
