<?xml version="1.0" encoding="utf-8"?>
<!-- Generator: Adobe Illustrator 21.0.0, SVG Export Plug-In . SVG Version: 6.00 Build 0)  -->
<svg version="1.1" id="Слой_1" xmlns="http://www.w3.org/2000/svg" xmlns:xlink="http://www.w3.org/1999/xlink" x="0px" y="0px"
	 viewBox="0 0 44 44" style="enable-background:new 0 0 44 44;" xml:space="preserve">
<g>
	<g>
		<path d="M14.4,30v-0.4c0-0.9,1.7-0.1,1.7-2V16.3c0-1.8-1.7-1.1-1.7-2V14h8.9c4.1,0,5.4,2,5.4,3.7c0,1.9-1.7,3.3-4,3.5
			v0.1c3.5,0.2,4.9,2.4,4.9,4.3c0,2.1-1.4,4.5-6,4.5H14.4z M19.9,20.9h1.5c1.4,0,3.3-0.6,3.3-3c0-2.6-2.3-3-4-3h-0.8V20.9z
			 M19.9,27.3c0,1.2,0.1,1.9,1.8,1.9H22c2.1,0,3.6-1.1,3.6-3.7c0-3.8-3.6-3.8-4.7-3.8h-0.9V27.3z"/>
	</g>
</g>
</svg>
