<?xml version="1.0" encoding="utf-8"?>
<!-- Generator: Adobe Illustrator 21.0.0, SVG Export Plug-In . SVG Version: 6.00 Build 0)  -->
<svg version="1.1" id="Слой_1" xmlns="http://www.w3.org/2000/svg" xmlns:xlink="http://www.w3.org/1999/xlink" x="0px" y="0px"
	 viewBox="0 0 44 44" style="enable-background:new 0 0 44 44;" xml:space="preserve">
<g>
	<path d="M18.9,28c-0.8,0.8-2.1,0.8-3,0c-0.8-0.8-0.8-2.1,0-3l3.7-3.7c0.8-0.8,2.1-0.8,3,0l0.2,0.2l1.6-1.6l-0.2-0.2
		c-0.8-0.8-1.9-1.2-3.1-1.2c0,0,0,0,0,0c-1.2,0-2.2,0.4-3,1.2l-3.7,3.7l-0.1,0.1v0c-0.7,0.8-1.2,1.9-1.2,3c0,1.2,0.4,2.3,1.3,3.1
		c0.9,0.8,2,1.2,3.1,1.2c1.1,0,2.2-0.4,3-1.2l2.4-2.4l-1.6-1.6L18.9,28z"/>
	<path d="M29.6,14.4c-0.8-0.8-1.9-1.2-3.1-1.2c0,0,0,0,0,0c-1.2,0-2.2,0.4-3,1.2l-2.3,2.3l1.6,1.6l2.3-2.3
		c0.8-0.8,2.1-0.8,3,0c0.8,0.8,0.8,2.1,0,3l-3.7,3.7c-0.8,0.8-2.1,0.8-3,0l-0.2-0.2l-1.6,1.6l0.2,0.2c0.9,0.8,2,1.2,3.1,1.2
		c1.1,0,2.2-0.4,3.1-1.2l3.7-3.7C31.3,18.8,31.3,16,29.6,14.4z"/>
</g>
</svg>
