<?xml version="1.0" encoding="utf-8"?>
<!-- Generator: Adobe Illustrator 21.0.0, SVG Export Plug-In . SVG Version: 6.00 Build 0)  -->
<svg version="1.1" id="Слой_1" xmlns="http://www.w3.org/2000/svg" xmlns:xlink="http://www.w3.org/1999/xlink" x="0px" y="0px"
	 viewBox="0 0 44 44" style="enable-background:new 0 0 44 44;" xml:space="preserve">
<g>
	<g>
		<path d="M19.6,30.5c0-0.9,0.2-2,0.4-3l1.3-7c-0.8,0.5-1.6,1.1-2.5,1.8c-0.1-0.2-0.3-0.4-0.5-0.6c1.7-1.9,3.2-3,4.4-3
			c1.1,0,1.5,0.7,1.5,1.6c0,0.3-0.1,0.7-0.1,1.2c-0.4,2.1-0.9,4.8-1.7,8.5c0.8-0.5,1.6-1,2.4-1.6l0.4,0.5c-1.7,1.8-3.4,2.9-4.2,2.9
			C20.2,31.9,19.6,31.6,19.6,30.5z M23.9,12.1c1,0,1.7,0.8,1.7,1.7c0,1.1-0.9,1.9-1.9,1.9c-0.9,0-1.7-0.7-1.7-1.7
			C22,13,22.9,12.1,23.9,12.1z"/>
	</g>
</g>
</svg>
