<?xml version="1.0" encoding="utf-8"?>
<!-- Generator: Adobe Illustrator 21.0.0, SVG Export Plug-In . SVG Version: 6.00 Build 0)  -->
<svg version="1.1" id="Слой_1" xmlns="http://www.w3.org/2000/svg" xmlns:xlink="http://www.w3.org/1999/xlink" x="0px" y="0px"
	 viewBox="0 0 44 44" style="enable-background:new 0 0 44 44;" xml:space="preserve">
<style type="text/css">
	.st0{fill:#FFFFFF;}
</style>
<g>
	<path d="M33.5,19.6l-2.3-0.7c-0.1-0.4-0.3-0.8-0.5-1.2l1.2-2.1c0.2-0.3,0.1-0.8-0.1-1l-2.2-2.2c-0.3-0.3-0.7-0.3-1-0.2
		l-2.1,1.2c-0.4-0.2-0.8-0.4-1.2-0.5l-0.7-2.3c-0.1-0.4-0.5-0.6-0.8-0.6h-3.1c-0.4,0-0.7,0.3-0.8,0.6l-0.7,2.3
		c-0.4,0.1-0.8,0.3-1.2,0.5l-2.1-1.2c-0.3-0.2-0.8-0.1-1,0.2l-2.2,2.2c-0.3,0.3-0.3,0.7-0.1,1l1.2,2.1c-0.2,0.4-0.4,0.8-0.5,1.2
		L11,19.6c-0.4,0.1-0.6,0.5-0.6,0.8v3.2c0,0.4,0.3,0.7,0.6,0.8l2.3,0.7c0.1,0.4,0.3,0.8,0.5,1.2l-1.2,2.1c-0.2,0.3-0.1,0.8,0.1,1
		l2.2,2.2c0.3,0.3,0.7,0.3,1,0.1l2.1-1.2c0.4,0.2,0.8,0.3,1.2,0.5l0.7,2.3c0.1,0.4,0.5,0.6,0.8,0.6h3.1c0.4,0,0.7-0.3,0.8-0.6
		l0.7-2.3c0.4-0.2,0.8-0.3,1.2-0.5l2.1,1.2c0.3,0.2,0.8,0.1,1-0.1l2.2-2.2c0.3-0.3,0.3-0.7,0.1-1l-1.2-2.1c0.2-0.4,0.4-0.8,0.5-1.2
		l2.3-0.7c0.4-0.1,0.6-0.5,0.6-0.8v-3.2C34.1,20,33.9,19.7,33.5,19.6z M32.9,23l-2.2,0.6c-0.3,0.1-0.5,0.3-0.6,0.6
		c-0.2,0.7-0.4,1.3-0.8,1.9c-0.2,0.3-0.2,0.6,0,0.9l1.1,2L29,30.4l-2-1.1c-0.3-0.2-0.6-0.2-0.9,0c-0.6,0.3-1.2,0.6-1.9,0.8
		c-0.3,0.1-0.6,0.3-0.6,0.6L23,32.9h-2l-0.6-2.2c-0.1-0.3-0.3-0.6-0.6-0.6c-0.7-0.2-1.3-0.5-1.9-0.8c-0.3-0.2-0.6-0.2-0.9,0l-2,1.1
		L13.6,29l1.1-2c0.1-0.3,0.1-0.6,0-0.9c-0.3-0.6-0.6-1.2-0.8-1.9c-0.1-0.3-0.3-0.5-0.6-0.6L11.1,23v-2l2.2-0.6
		c0.3-0.1,0.5-0.3,0.6-0.6c0.2-0.7,0.4-1.3,0.8-1.9c0.2-0.3,0.2-0.6,0-0.9l-1.1-2l1.4-1.4l2,1.1c0.3,0.1,0.6,0.1,0.9,0
		c0.6-0.3,1.2-0.6,1.9-0.8c0.3-0.1,0.5-0.3,0.6-0.6l0.6-2.2h2l0.6,2.2c0.1,0.3,0.3,0.5,0.6,0.6c0.7,0.2,1.3,0.5,1.9,0.8
		c0.3,0.1,0.6,0.1,0.9,0l2-1.1l1.4,1.4l-1.1,2c-0.2,0.3-0.2,0.6,0,0.9c0.3,0.6,0.6,1.2,0.8,1.9c0.1,0.3,0.3,0.5,0.6,0.6l2.2,0.6
		C32.9,21,32.9,23,32.9,23z"/>
	<path d="M22,27c-2.7,0-5-2.2-5-5s2.2-5,5-5s5,2.2,5,5S24.7,27,22,27z M22,18.5c-1.9,0-3.5,1.6-3.5,3.5s1.6,3.5,3.5,3.5
		s3.5-1.6,3.5-3.5S23.9,18.5,22,18.5z"/>
</g>
</svg>
