<?xml version="1.0" encoding="utf-8"?>
<!-- Generator: Adobe Illustrator 21.0.0, SVG Export Plug-In . SVG Version: 6.00 Build 0)  -->
<svg version="1.1" id="Слой_1" xmlns="http://www.w3.org/2000/svg"  x="0px" y="0px"
	 viewBox="0 0 44 44" style="enable-background:new 0 0 44 44;" xml:space="preserve">
<g transform="translate(0,-952.36215)">
	<path d="M35.4,973.4l-12.2,7.2c-0.1,0.1-0.3,0.1-0.4,0.1c-0.5,0-0.8-0.4-0.8-0.8v-3c-5.1,0.2-9.5,3-12.3,7.2
		c-0.1,0.2-0.4,0.3-0.6,0.3c-0.4,0-0.8-0.4-0.8-0.8c0-5.3,1.5-9,4.1-11.5c2.4-2.3,5.8-3.4,9.6-3.7v-3.1c0-0.4,0.2-0.7,0.6-0.8
		c1.8,0.1,12.8,7.6,12.8,7.6c0.1,0.1,0.2,0.2,0.3,0.3C35.9,972.7,35.8,973.2,35.4,973.4z"/>
</g>
</svg>
