<?xml version="1.0" encoding="utf-8"?>
<svg version="1.1" id="Слой_1" xmlns="http://www.w3.org/2000/svg" xmlns:xlink="http://www.w3.org/1999/xlink" x="0px" y="0px"
	 viewBox="0 0 44 44" style="enable-background:new 0 0 44 44;" xml:space="preserve">
<path d="M18.6,28.8c-0.9,0.9-2.3,0.9-3.2,0c-0.9-0.9-0.9-2.4,0-3.3l4-4.1c0.9-0.9,2.3-0.9,3.2,0l0.2,0.2l1.7-1.8
	l-0.3-0.2c-0.9-0.9-2.1-1.4-3.3-1.4l0,0c-1.2,0-2.4,0.5-3.3,1.4l-4.1,4.1l-0.1,0.1l0,0c-0.8,0.9-1.3,2.1-1.3,3.3
	c0,1.3,0.5,2.5,1.4,3.4c0.9,0.9,2.1,1.3,3.3,1.4c1.2,0,2.4-0.5,3.3-1.4l2.6-2.6l-1.7-1.7L18.6,28.8z"/>
<path d="M30.3,13.7c-0.9-0.9-2.1-1.3-3.3-1.3l0,0c-1.2,0-2.4,0.5-3.3,1.4l-2.5,2.6l1.7,1.7l2.5-2.6
	c0.9-0.9,2.3-0.9,3.2,0c0.9,0.9,0.9,2.4,0,3.3l-4.1,4.1c-0.9,0.9-2.3,0.9-3.2,0L21,22.7l-1.7,1.8l0.3,0.2c0.9,0.9,2.1,1.4,3.3,1.4
	c1.2,0,2.4-0.5,3.3-1.4l4.1-4.2C32.1,18.6,32.1,15.6,30.3,13.7z"/>
</svg>
