<?xml version="1.0" encoding="utf-8"?>
<!-- Generator: Adobe Illustrator 21.0.0, SVG Export Plug-In . SVG Version: 6.00 Build 0)  -->
<svg version="1.1" id="Layer_1" xmlns="http://www.w3.org/2000/svg" xmlns:xlink="http://www.w3.org/1999/xlink" x="0px" y="0px"
	 viewBox="0 0 35 35" style="enable-background:new 0 0 35 35;" xml:space="preserve">

<path d="M17.5,8.5c-5,0-9,4-9,9c0,5,4,9,9,9s9-4,9-9S22.5,8.5,17.5,8.5z M23.9,14H21c-0.4-1.3-1-2.5-1.7-3.6
	C21.3,10.9,23,12.2,23.9,14z M19.7,19.4h-4.5c-0.2-1.3-0.2-2.6,0-3.8h4.5C20,16.9,20,18.1,19.7,19.4z M17.5,10.7
	c0.8,1,1.4,2.1,1.8,3.2h-3.6C16.1,12.8,16.7,11.7,17.5,10.7z M11.1,14c1-1.8,2.7-3.1,4.7-3.6C15,11.5,14.4,12.7,14,14L11.1,14
	L11.1,14z M10.4,15.6h3.2c-0.2,1.3-0.2,2.6,0,3.8h-3.2C10.1,18.2,10.1,16.8,10.4,15.6z M11.1,21H14c0.4,1.3,1,2.5,1.7,3.6
	C13.7,24.1,12,22.8,11.1,21z M17.5,24.3c-0.8-1-1.4-2.1-1.8-3.2h3.6C18.9,22.2,18.3,23.3,17.5,24.3z M19.3,24.6
	c0.8-1.1,1.4-2.3,1.7-3.6h2.9C23,22.8,21.3,24.1,19.3,24.6z M21.4,19.4c0.2-1.3,0.2-2.6,0-3.8h3.2c0.3,1.3,0.3,2.6,0,3.8H21.4z"/>
</svg>
