<?xml version="1.0" encoding="utf-8"?>
<!-- Generator: Adobe Illustrator 21.0.0, SVG Export Plug-In . SVG Version: 6.00 Build 0)  -->
<svg version="1.1" id="Layer_1" xmlns="http://www.w3.org/2000/svg" xmlns:xlink="http://www.w3.org/1999/xlink" x="0px" y="0px"
	 viewBox="0 0 35 35" style="enable-background:new 0 0 35 35;" xml:space="preserve">
<style type="text/css">
	.st0{fill:none;}
	.st1{fill:#FFFFFF;}
</style>
<path id="path9" d="M26.1,8.4L5.3,16.3c-1.4,0.5-1.4,1.4-0.2,1.8l5.1,1.6l1.9,6c0.2,0.7,0.2,0.9,0.9,0.9
	c0.5,0,0.7-0.2,1.1-0.5c0.2-0.2,1.2-1.2,2.6-2.5l5.3,3.9c1.1,0.5,1.8,0.2,1.9-0.9L27.4,10C27.9,8.6,27,8.1,26.1,8.4z M11.1,19.4
	L22.7,12c0.5-0.4,1.1-0.2,0.7,0.2l-10,9.2L13,25.5L11.1,19.4z"/>
</svg>
