<?xml version="1.0" encoding="utf-8"?>
<!-- Generator: Adobe Illustrator 21.0.0, SVG Export Plug-In . SVG Version: 6.00 Build 0)  -->
<svg version="1.1" id="Слой_1" xmlns="http://www.w3.org/2000/svg" xmlns:xlink="http://www.w3.org/1999/xlink" x="0px" y="0px"
	 viewBox="0 0 63 63" style="enable-background:new 0 0 63 63;" xml:space="preserve">
<path d="M51.9,32.6c-2.6-7-11-11.9-20.6-11.9c-9.1,0-17.3,4.4-20.3,10.9l-3.8-1.8c3.7-8,13.4-13.3,24.1-13.3
	c11.3,0,21.4,6,24.6,14.7L51.9,32.6z"/>
<path d="M31.6,46.5c-5.5,0-10-4.5-10-10c0-5.5,4.5-10,10-10s10,4.5,10,10C41.6,42,37.1,46.5,31.6,46.5z M31.6,30.7
	c-3.2,0-5.8,2.6-5.8,5.8s2.6,5.8,5.8,5.8s5.8-2.6,5.8-5.8S34.8,30.7,31.6,30.7z"/>
</svg>
